<?xml version="1.0" encoding="UTF-8" standalone="no"?>
<!-- Created with Inkscape (http://www.inkscape.org/) -->

<svg
   width="500mm"
   height="500mm"
   viewBox="0 0 500 500"
   version="1.1"
   id="svg5"
   inkscape:version="1.1 (c68e22c387, 2021-05-23)"
   sodipodi:docname="icon.svg"
   xmlns:inkscape="http://www.inkscape.org/namespaces/inkscape"
   xmlns:sodipodi="http://sodipodi.sourceforge.net/DTD/sodipodi-0.dtd"
   xmlns="http://www.w3.org/2000/svg"
   xmlns:svg="http://www.w3.org/2000/svg">
  <sodipodi:namedview
     id="namedview7"
     pagecolor="#505050"
     bordercolor="#eeeeee"
     borderopacity="1"
     inkscape:pageshadow="0"
     inkscape:pageopacity="0"
     inkscape:pagecheckerboard="0"
     inkscape:document-units="mm"
     showgrid="false"
     inkscape:zoom="0.12787542"
     inkscape:cx="762.46084"
     inkscape:cy="1536.6518"
     inkscape:window-width="1920"
     inkscape:window-height="1001"
     inkscape:window-x="-9"
     inkscape:window-y="-9"
     inkscape:window-maximized="1"
     inkscape:current-layer="layer1" />
  <defs
     id="defs2" />
  <g
     inkscape:label="Layer 1"
     inkscape:groupmode="layer"
     id="layer1">
    <path
       style="fill:#133752;fill-opacity:1;stroke-width:6.09271;stroke-linecap:round;stroke-linejoin:round"
       d="M 944.88281,0 A 944.88189,944.88189 0 0 0 0,944.88281 944.88189,944.88189 0 0 0 944.88281,1889.7637 944.88189,944.88189 0 0 0 1889.7637,944.88281 944.88189,944.88189 0 0 0 944.88281,0 Z"
       transform="scale(0.26458333)"
       id="path858" />
    <path
       style="fill:#fff7e3;fill-opacity:1;stroke-width:6.09271;stroke-linecap:round;stroke-linejoin:round"
       d="M 944.88281,182.47852 A 762.4033,762.4033 0 0 1 1707.2852,944.88281 762.4033,762.4033 0 0 1 944.88281,1707.2852 762.4033,762.4033 0 0 1 182.47852,944.88281 762.4033,762.4033 0 0 1 944.88281,182.47852 Z"
       transform="scale(0.26458333)"
       id="path8164" />
    <g
       id="g10335"
       transform="matrix(-0.77420099,0.63293983,-0.63294268,-0.77420447,602.68175,281.40185)">
      <path
         style="fill:#133752;fill-opacity:1;stroke:none;stroke-width:0.163159px;stroke-linecap:butt;stroke-linejoin:miter;stroke-opacity:1"
         d="m 253.17107,193.40381 161.49651,54.13276 -161.49651,54.13275 z"
         id="path3886"
         sodipodi:nodetypes="cccc" />
      <path
         style="fill:#e1842a;fill-opacity:1;stroke:none;stroke-width:0.163159px;stroke-linecap:butt;stroke-linejoin:miter;stroke-opacity:1"
         d="M 253.17107,193.40381 91.674608,247.53657 253.17107,301.66932 Z"
         id="path4901"
         sodipodi:nodetypes="cccc" />
    </g>
    <path
       style="fill:#fff7e3;fill-opacity:1;stroke-width:0.136009;stroke-linecap:round;stroke-linejoin:round"
       d="m 250.00001,232.9806 a 17.019389,17.019389 0 0 1 17.01937,17.01941 17.019389,17.019389 0 0 1 -17.01937,17.01937 17.019389,17.019389 0 0 1 -17.01941,-17.01937 17.019389,17.019389 0 0 1 17.01941,-17.01941 z"
       id="path10331" />
  </g>
</svg>
